<?xml version="1.0" encoding="utf-8" standalone="no"?>
<!DOCTYPE svg PUBLIC "-//W3C//DTD SVG 1.1//EN"
  "http://www.w3.org/Graphics/SVG/1.1/DTD/svg11.dtd">
<svg xmlns:xlink="http://www.w3.org/1999/xlink" width="144pt" height="216pt" viewBox="0 0 144 216" xmlns="http://www.w3.org/2000/svg" version="1.1">
 <metadata>
  <rdf:RDF xmlns:dc="http://purl.org/dc/elements/1.1/" xmlns:cc="http://creativecommons.org/ns#" xmlns:rdf="http://www.w3.org/1999/02/22-rdf-syntax-ns#">
   <cc:Work>
    <dc:type rdf:resource="http://purl.org/dc/dcmitype/StillImage"/>
    <dc:date>2025-09-02T11:10:43.735296</dc:date>
    <dc:format>image/svg+xml</dc:format>
    <dc:creator>
     <cc:Agent>
      <dc:title>Matplotlib v3.9.4, https://matplotlib.org/</dc:title>
     </cc:Agent>
    </dc:creator>
   </cc:Work>
  </rdf:RDF>
 </metadata>
 <defs>
  <style type="text/css">*{stroke-linejoin: round; stroke-linecap: butt}</style>
 </defs>
 <g id="figure_1">
  <g id="patch_1">
   <path d="M 0 216 
L 144 216 
L 144 0 
L 0 0 
L 0 216 
z
" style="fill: none"/>
  </g>
  <g id="axes_1">
   <g id="patch_2">
    <path d="M 18 192.24 
L 129.6 192.24 
L 129.6 25.92 
L 18 25.92 
L 18 192.24 
z
" style="fill: none"/>
   </g>
   <g id="patch_3">
    <path d="M 22.092652 192.24 
L 23.103184 192.24 
L 23.103184 176.4 
L 22.092652 176.4 
z
" clip-path="url(#pdc09c3cc6d)" style="fill: #1f77b4; opacity: 0.2"/>
   </g>
   <g id="patch_4">
    <path d="M 23.103184 192.24 
L 24.113715 192.24 
L 24.113715 192.24 
L 23.103184 192.24 
z
" clip-path="url(#pdc09c3cc6d)" style="fill: #1f77b4; opacity: 0.2"/>
   </g>
   <g id="patch_5">
    <path d="M 24.113715 192.24 
L 25.124247 192.24 
L 25.124247 176.4 
L 24.113715 176.4 
z
" clip-path="url(#pdc09c3cc6d)" style="fill: #1f77b4; opacity: 0.2"/>
   </g>
   <g id="patch_6">
    <path d="M 25.124247 192.24 
L 26.134778 192.24 
L 26.134778 128.88 
L 25.124247 128.88 
z
" clip-path="url(#pdc09c3cc6d)" style="fill: #1f77b4; opacity: 0.2"/>
   </g>
   <g id="patch_7">
    <path d="M 26.134778 192.24 
L 27.14531 192.24 
L 27.14531 65.52 
L 26.134778 65.52 
z
" clip-path="url(#pdc09c3cc6d)" style="fill: #1f77b4; opacity: 0.2"/>
   </g>
   <g id="patch_8">
    <path d="M 27.14531 192.24 
L 28.155841 192.24 
L 28.155841 33.84 
L 27.14531 33.84 
z
" clip-path="url(#pdc09c3cc6d)" style="fill: #1f77b4; opacity: 0.2"/>
   </g>
   <g id="patch_9">
    <path d="M 28.155841 192.24 
L 29.166373 192.24 
L 29.166373 65.52 
L 28.155841 65.52 
z
" clip-path="url(#pdc09c3cc6d)" style="fill: #1f77b4; opacity: 0.2"/>
   </g>
   <g id="patch_10">
    <path d="M 29.166373 192.24 
L 30.176904 192.24 
L 30.176904 49.68 
L 29.166373 49.68 
z
" clip-path="url(#pdc09c3cc6d)" style="fill: #1f77b4; opacity: 0.2"/>
   </g>
   <g id="patch_11">
    <path d="M 30.176904 192.24 
L 31.187436 192.24 
L 31.187436 176.4 
L 30.176904 176.4 
z
" clip-path="url(#pdc09c3cc6d)" style="fill: #1f77b4; opacity: 0.2"/>
   </g>
   <g id="patch_12">
    <path d="M 31.187436 192.24 
L 32.197967 192.24 
L 32.197967 176.4 
L 31.187436 176.4 
z
" clip-path="url(#pdc09c3cc6d)" style="fill: #1f77b4; opacity: 0.2"/>
   </g>
   <g id="patch_13">
    <path d="M 32.197967 192.24 
L 33.208498 192.24 
L 33.208498 176.4 
L 32.197967 176.4 
z
" clip-path="url(#pdc09c3cc6d)" style="fill: #1f77b4; opacity: 0.2"/>
   </g>
   <g id="patch_14">
    <path d="M 33.208498 192.24 
L 34.21903 192.24 
L 34.21903 192.24 
L 33.208498 192.24 
z
" clip-path="url(#pdc09c3cc6d)" style="fill: #1f77b4; opacity: 0.2"/>
   </g>
   <g id="patch_15">
    <path d="M 34.21903 192.24 
L 35.229561 192.24 
L 35.229561 192.24 
L 34.21903 192.24 
z
" clip-path="url(#pdc09c3cc6d)" style="fill: #1f77b4; opacity: 0.2"/>
   </g>
   <g id="patch_16">
    <path d="M 35.229561 192.24 
L 36.240093 192.24 
L 36.240093 192.24 
L 35.229561 192.24 
z
" clip-path="url(#pdc09c3cc6d)" style="fill: #1f77b4; opacity: 0.2"/>
   </g>
   <g id="patch_17">
    <path d="M 36.240093 192.24 
L 37.250624 192.24 
L 37.250624 192.24 
L 36.240093 192.24 
z
" clip-path="url(#pdc09c3cc6d)" style="fill: #1f77b4; opacity: 0.2"/>
   </g>
   <g id="patch_18">
    <path d="M 37.250624 192.24 
L 38.261156 192.24 
L 38.261156 192.24 
L 37.250624 192.24 
z
" clip-path="url(#pdc09c3cc6d)" style="fill: #1f77b4; opacity: 0.2"/>
   </g>
   <g id="patch_19">
    <path d="M 38.261156 192.24 
L 39.271687 192.24 
L 39.271687 192.24 
L 38.261156 192.24 
z
" clip-path="url(#pdc09c3cc6d)" style="fill: #1f77b4; opacity: 0.2"/>
   </g>
   <g id="patch_20">
    <path d="M 39.271687 192.24 
L 40.282219 192.24 
L 40.282219 192.24 
L 39.271687 192.24 
z
" clip-path="url(#pdc09c3cc6d)" style="fill: #1f77b4; opacity: 0.2"/>
   </g>
   <g id="patch_21">
    <path d="M 40.282219 192.24 
L 41.29275 192.24 
L 41.29275 192.24 
L 40.282219 192.24 
z
" clip-path="url(#pdc09c3cc6d)" style="fill: #1f77b4; opacity: 0.2"/>
   </g>
   <g id="patch_22">
    <path d="M 41.29275 192.24 
L 42.303282 192.24 
L 42.303282 192.24 
L 41.29275 192.24 
z
" clip-path="url(#pdc09c3cc6d)" style="fill: #1f77b4; opacity: 0.2"/>
   </g>
   <g id="patch_23">
    <path d="M 42.303282 192.24 
L 43.313813 192.24 
L 43.313813 192.24 
L 42.303282 192.24 
z
" clip-path="url(#pdc09c3cc6d)" style="fill: #1f77b4; opacity: 0.2"/>
   </g>
   <g id="patch_24">
    <path d="M 43.313813 192.24 
L 44.324345 192.24 
L 44.324345 192.24 
L 43.313813 192.24 
z
" clip-path="url(#pdc09c3cc6d)" style="fill: #1f77b4; opacity: 0.2"/>
   </g>
   <g id="patch_25">
    <path d="M 44.324345 192.24 
L 45.334876 192.24 
L 45.334876 192.24 
L 44.324345 192.24 
z
" clip-path="url(#pdc09c3cc6d)" style="fill: #1f77b4; opacity: 0.2"/>
   </g>
   <g id="patch_26">
    <path d="M 45.334876 192.24 
L 46.345407 192.24 
L 46.345407 192.24 
L 45.334876 192.24 
z
" clip-path="url(#pdc09c3cc6d)" style="fill: #1f77b4; opacity: 0.2"/>
   </g>
   <g id="patch_27">
    <path d="M 46.345407 192.24 
L 47.355939 192.24 
L 47.355939 192.24 
L 46.345407 192.24 
z
" clip-path="url(#pdc09c3cc6d)" style="fill: #1f77b4; opacity: 0.2"/>
   </g>
   <g id="patch_28">
    <path d="M 47.355939 192.24 
L 48.36647 192.24 
L 48.36647 192.24 
L 47.355939 192.24 
z
" clip-path="url(#pdc09c3cc6d)" style="fill: #1f77b4; opacity: 0.2"/>
   </g>
   <g id="patch_29">
    <path d="M 48.36647 192.24 
L 49.377002 192.24 
L 49.377002 192.24 
L 48.36647 192.24 
z
" clip-path="url(#pdc09c3cc6d)" style="fill: #1f77b4; opacity: 0.2"/>
   </g>
   <g id="patch_30">
    <path d="M 49.377002 192.24 
L 50.387533 192.24 
L 50.387533 192.24 
L 49.377002 192.24 
z
" clip-path="url(#pdc09c3cc6d)" style="fill: #1f77b4; opacity: 0.2"/>
   </g>
   <g id="patch_31">
    <path d="M 50.387533 192.24 
L 51.398065 192.24 
L 51.398065 192.24 
L 50.387533 192.24 
z
" clip-path="url(#pdc09c3cc6d)" style="fill: #1f77b4; opacity: 0.2"/>
   </g>
   <g id="patch_32">
    <path d="M 51.398065 192.24 
L 52.408596 192.24 
L 52.408596 192.24 
L 51.398065 192.24 
z
" clip-path="url(#pdc09c3cc6d)" style="fill: #1f77b4; opacity: 0.2"/>
   </g>
   <g id="patch_33">
    <path d="M 52.408596 192.24 
L 53.419128 192.24 
L 53.419128 192.24 
L 52.408596 192.24 
z
" clip-path="url(#pdc09c3cc6d)" style="fill: #1f77b4; opacity: 0.2"/>
   </g>
   <g id="patch_34">
    <path d="M 53.419128 192.24 
L 54.429659 192.24 
L 54.429659 192.24 
L 53.419128 192.24 
z
" clip-path="url(#pdc09c3cc6d)" style="fill: #1f77b4; opacity: 0.2"/>
   </g>
   <g id="patch_35">
    <path d="M 54.429659 192.24 
L 55.440191 192.24 
L 55.440191 192.24 
L 54.429659 192.24 
z
" clip-path="url(#pdc09c3cc6d)" style="fill: #1f77b4; opacity: 0.2"/>
   </g>
   <g id="patch_36">
    <path d="M 55.440191 192.24 
L 56.450722 192.24 
L 56.450722 192.24 
L 55.440191 192.24 
z
" clip-path="url(#pdc09c3cc6d)" style="fill: #1f77b4; opacity: 0.2"/>
   </g>
   <g id="patch_37">
    <path d="M 56.450722 192.24 
L 57.461254 192.24 
L 57.461254 192.24 
L 56.450722 192.24 
z
" clip-path="url(#pdc09c3cc6d)" style="fill: #1f77b4; opacity: 0.2"/>
   </g>
   <g id="patch_38">
    <path d="M 57.461254 192.24 
L 58.471785 192.24 
L 58.471785 192.24 
L 57.461254 192.24 
z
" clip-path="url(#pdc09c3cc6d)" style="fill: #1f77b4; opacity: 0.2"/>
   </g>
   <g id="patch_39">
    <path d="M 58.471785 192.24 
L 59.482316 192.24 
L 59.482316 192.24 
L 58.471785 192.24 
z
" clip-path="url(#pdc09c3cc6d)" style="fill: #1f77b4; opacity: 0.2"/>
   </g>
   <g id="patch_40">
    <path d="M 59.482316 192.24 
L 60.492848 192.24 
L 60.492848 192.24 
L 59.482316 192.24 
z
" clip-path="url(#pdc09c3cc6d)" style="fill: #1f77b4; opacity: 0.2"/>
   </g>
   <g id="patch_41">
    <path d="M 60.492848 192.24 
L 61.503379 192.24 
L 61.503379 192.24 
L 60.492848 192.24 
z
" clip-path="url(#pdc09c3cc6d)" style="fill: #1f77b4; opacity: 0.2"/>
   </g>
   <g id="patch_42">
    <path d="M 61.503379 192.24 
L 62.513911 192.24 
L 62.513911 192.24 
L 61.503379 192.24 
z
" clip-path="url(#pdc09c3cc6d)" style="fill: #1f77b4; opacity: 0.2"/>
   </g>
   <g id="patch_43">
    <path d="M 62.513911 192.24 
L 63.524442 192.24 
L 63.524442 192.24 
L 62.513911 192.24 
z
" clip-path="url(#pdc09c3cc6d)" style="fill: #1f77b4; opacity: 0.2"/>
   </g>
   <g id="patch_44">
    <path d="M 63.524442 192.24 
L 64.534974 192.24 
L 64.534974 192.24 
L 63.524442 192.24 
z
" clip-path="url(#pdc09c3cc6d)" style="fill: #1f77b4; opacity: 0.2"/>
   </g>
   <g id="patch_45">
    <path d="M 64.534974 192.24 
L 65.545505 192.24 
L 65.545505 160.56 
L 64.534974 160.56 
z
" clip-path="url(#pdc09c3cc6d)" style="fill: #1f77b4; opacity: 0.2"/>
   </g>
   <g id="patch_46">
    <path d="M 65.545505 192.24 
L 66.556037 192.24 
L 66.556037 192.24 
L 65.545505 192.24 
z
" clip-path="url(#pdc09c3cc6d)" style="fill: #1f77b4; opacity: 0.2"/>
   </g>
   <g id="patch_47">
    <path d="M 66.556037 192.24 
L 67.566568 192.24 
L 67.566568 176.4 
L 66.556037 176.4 
z
" clip-path="url(#pdc09c3cc6d)" style="fill: #1f77b4; opacity: 0.2"/>
   </g>
   <g id="patch_48">
    <path d="M 67.566568 192.24 
L 68.5771 192.24 
L 68.5771 176.4 
L 67.566568 176.4 
z
" clip-path="url(#pdc09c3cc6d)" style="fill: #1f77b4; opacity: 0.2"/>
   </g>
   <g id="patch_49">
    <path d="M 68.5771 192.24 
L 69.587631 192.24 
L 69.587631 192.24 
L 68.5771 192.24 
z
" clip-path="url(#pdc09c3cc6d)" style="fill: #1f77b4; opacity: 0.2"/>
   </g>
   <g id="patch_50">
    <path d="M 69.587631 192.24 
L 70.598163 192.24 
L 70.598163 192.24 
L 69.587631 192.24 
z
" clip-path="url(#pdc09c3cc6d)" style="fill: #1f77b4; opacity: 0.2"/>
   </g>
   <g id="patch_51">
    <path d="M 70.598163 192.24 
L 71.608694 192.24 
L 71.608694 192.24 
L 70.598163 192.24 
z
" clip-path="url(#pdc09c3cc6d)" style="fill: #1f77b4; opacity: 0.2"/>
   </g>
   <g id="patch_52">
    <path d="M 71.608694 192.24 
L 72.619225 192.24 
L 72.619225 192.24 
L 71.608694 192.24 
z
" clip-path="url(#pdc09c3cc6d)" style="fill: #1f77b4; opacity: 0.2"/>
   </g>
   <g id="patch_53">
    <path d="M 72.619225 192.24 
L 73.629757 192.24 
L 73.629757 192.24 
L 72.619225 192.24 
z
" clip-path="url(#pdc09c3cc6d)" style="fill: #1f77b4; opacity: 0.2"/>
   </g>
   <g id="patch_54">
    <path d="M 73.629757 192.24 
L 74.640288 192.24 
L 74.640288 192.24 
L 73.629757 192.24 
z
" clip-path="url(#pdc09c3cc6d)" style="fill: #1f77b4; opacity: 0.2"/>
   </g>
   <g id="patch_55">
    <path d="M 74.640288 192.24 
L 75.65082 192.24 
L 75.65082 192.24 
L 74.640288 192.24 
z
" clip-path="url(#pdc09c3cc6d)" style="fill: #1f77b4; opacity: 0.2"/>
   </g>
   <g id="patch_56">
    <path d="M 75.65082 192.24 
L 76.661351 192.24 
L 76.661351 144.72 
L 75.65082 144.72 
z
" clip-path="url(#pdc09c3cc6d)" style="fill: #1f77b4; opacity: 0.2"/>
   </g>
   <g id="patch_57">
    <path d="M 76.661351 192.24 
L 77.671883 192.24 
L 77.671883 144.72 
L 76.661351 144.72 
z
" clip-path="url(#pdc09c3cc6d)" style="fill: #1f77b4; opacity: 0.2"/>
   </g>
   <g id="patch_58">
    <path d="M 77.671883 192.24 
L 78.682414 192.24 
L 78.682414 160.56 
L 77.671883 160.56 
z
" clip-path="url(#pdc09c3cc6d)" style="fill: #1f77b4; opacity: 0.2"/>
   </g>
   <g id="patch_59">
    <path d="M 78.682414 192.24 
L 79.692946 192.24 
L 79.692946 81.36 
L 78.682414 81.36 
z
" clip-path="url(#pdc09c3cc6d)" style="fill: #1f77b4; opacity: 0.2"/>
   </g>
   <g id="patch_60">
    <path d="M 79.692946 192.24 
L 80.703477 192.24 
L 80.703477 97.2 
L 79.692946 97.2 
z
" clip-path="url(#pdc09c3cc6d)" style="fill: #1f77b4; opacity: 0.2"/>
   </g>
   <g id="patch_61">
    <path d="M 80.703477 192.24 
L 81.714009 192.24 
L 81.714009 160.56 
L 80.703477 160.56 
z
" clip-path="url(#pdc09c3cc6d)" style="fill: #1f77b4; opacity: 0.2"/>
   </g>
   <g id="patch_62">
    <path d="M 81.714009 192.24 
L 82.72454 192.24 
L 82.72454 176.4 
L 81.714009 176.4 
z
" clip-path="url(#pdc09c3cc6d)" style="fill: #1f77b4; opacity: 0.2"/>
   </g>
   <g id="patch_63">
    <path d="M 82.72454 192.24 
L 83.735071 192.24 
L 83.735071 192.24 
L 82.72454 192.24 
z
" clip-path="url(#pdc09c3cc6d)" style="fill: #1f77b4; opacity: 0.2"/>
   </g>
   <g id="patch_64">
    <path d="M 83.735071 192.24 
L 84.745603 192.24 
L 84.745603 192.24 
L 83.735071 192.24 
z
" clip-path="url(#pdc09c3cc6d)" style="fill: #1f77b4; opacity: 0.2"/>
   </g>
   <g id="patch_65">
    <path d="M 84.745603 192.24 
L 85.756134 192.24 
L 85.756134 192.24 
L 84.745603 192.24 
z
" clip-path="url(#pdc09c3cc6d)" style="fill: #1f77b4; opacity: 0.2"/>
   </g>
   <g id="patch_66">
    <path d="M 85.756134 192.24 
L 86.766666 192.24 
L 86.766666 192.24 
L 85.756134 192.24 
z
" clip-path="url(#pdc09c3cc6d)" style="fill: #1f77b4; opacity: 0.2"/>
   </g>
   <g id="patch_67">
    <path d="M 86.766666 192.24 
L 87.777197 192.24 
L 87.777197 192.24 
L 86.766666 192.24 
z
" clip-path="url(#pdc09c3cc6d)" style="fill: #1f77b4; opacity: 0.2"/>
   </g>
   <g id="patch_68">
    <path d="M 87.777197 192.24 
L 88.787729 192.24 
L 88.787729 192.24 
L 87.777197 192.24 
z
" clip-path="url(#pdc09c3cc6d)" style="fill: #1f77b4; opacity: 0.2"/>
   </g>
   <g id="patch_69">
    <path d="M 88.787729 192.24 
L 89.79826 192.24 
L 89.79826 192.24 
L 88.787729 192.24 
z
" clip-path="url(#pdc09c3cc6d)" style="fill: #1f77b4; opacity: 0.2"/>
   </g>
   <g id="patch_70">
    <path d="M 89.79826 192.24 
L 90.808792 192.24 
L 90.808792 192.24 
L 89.79826 192.24 
z
" clip-path="url(#pdc09c3cc6d)" style="fill: #1f77b4; opacity: 0.2"/>
   </g>
   <g id="patch_71">
    <path d="M 90.808792 192.24 
L 91.819323 192.24 
L 91.819323 192.24 
L 90.808792 192.24 
z
" clip-path="url(#pdc09c3cc6d)" style="fill: #1f77b4; opacity: 0.2"/>
   </g>
   <g id="patch_72">
    <path d="M 91.819323 192.24 
L 92.829855 192.24 
L 92.829855 192.24 
L 91.819323 192.24 
z
" clip-path="url(#pdc09c3cc6d)" style="fill: #1f77b4; opacity: 0.2"/>
   </g>
   <g id="patch_73">
    <path d="M 92.829855 192.24 
L 93.840386 192.24 
L 93.840386 192.24 
L 92.829855 192.24 
z
" clip-path="url(#pdc09c3cc6d)" style="fill: #1f77b4; opacity: 0.2"/>
   </g>
   <g id="patch_74">
    <path d="M 93.840386 192.24 
L 94.850918 192.24 
L 94.850918 192.24 
L 93.840386 192.24 
z
" clip-path="url(#pdc09c3cc6d)" style="fill: #1f77b4; opacity: 0.2"/>
   </g>
   <g id="patch_75">
    <path d="M 94.850918 192.24 
L 95.861449 192.24 
L 95.861449 160.56 
L 94.850918 160.56 
z
" clip-path="url(#pdc09c3cc6d)" style="fill: #1f77b4; opacity: 0.2"/>
   </g>
   <g id="patch_76">
    <path d="M 95.861449 192.24 
L 96.87198 192.24 
L 96.87198 144.72 
L 95.861449 144.72 
z
" clip-path="url(#pdc09c3cc6d)" style="fill: #1f77b4; opacity: 0.2"/>
   </g>
   <g id="patch_77">
    <path d="M 96.87198 192.24 
L 97.882512 192.24 
L 97.882512 97.2 
L 96.87198 97.2 
z
" clip-path="url(#pdc09c3cc6d)" style="fill: #1f77b4; opacity: 0.2"/>
   </g>
   <g id="patch_78">
    <path d="M 97.882512 192.24 
L 98.893043 192.24 
L 98.893043 113.04 
L 97.882512 113.04 
z
" clip-path="url(#pdc09c3cc6d)" style="fill: #1f77b4; opacity: 0.2"/>
   </g>
   <g id="patch_79">
    <path d="M 98.893043 192.24 
L 99.903575 192.24 
L 99.903575 160.56 
L 98.893043 160.56 
z
" clip-path="url(#pdc09c3cc6d)" style="fill: #1f77b4; opacity: 0.2"/>
   </g>
   <g id="patch_80">
    <path d="M 99.903575 192.24 
L 100.914106 192.24 
L 100.914106 97.2 
L 99.903575 97.2 
z
" clip-path="url(#pdc09c3cc6d)" style="fill: #1f77b4; opacity: 0.2"/>
   </g>
   <g id="patch_81">
    <path d="M 100.914106 192.24 
L 101.924638 192.24 
L 101.924638 192.24 
L 100.914106 192.24 
z
" clip-path="url(#pdc09c3cc6d)" style="fill: #1f77b4; opacity: 0.2"/>
   </g>
   <g id="patch_82">
    <path d="M 101.924638 192.24 
L 102.935169 192.24 
L 102.935169 192.24 
L 101.924638 192.24 
z
" clip-path="url(#pdc09c3cc6d)" style="fill: #1f77b4; opacity: 0.2"/>
   </g>
   <g id="patch_83">
    <path d="M 102.935169 192.24 
L 103.945701 192.24 
L 103.945701 192.24 
L 102.935169 192.24 
z
" clip-path="url(#pdc09c3cc6d)" style="fill: #1f77b4; opacity: 0.2"/>
   </g>
   <g id="patch_84">
    <path d="M 22.092652 192.24 
L 23.103184 192.24 
L 23.103184 192.24 
L 22.092652 192.24 
z
" clip-path="url(#pdc09c3cc6d)" style="fill: #ff7f0e"/>
   </g>
   <g id="patch_85">
    <path d="M 23.103184 192.24 
L 24.113715 192.24 
L 24.113715 192.24 
L 23.103184 192.24 
z
" clip-path="url(#pdc09c3cc6d)" style="fill: #ff7f0e"/>
   </g>
   <g id="patch_86">
    <path d="M 24.113715 192.24 
L 25.124247 192.24 
L 25.124247 192.24 
L 24.113715 192.24 
z
" clip-path="url(#pdc09c3cc6d)" style="fill: #ff7f0e"/>
   </g>
   <g id="patch_87">
    <path d="M 25.124247 192.24 
L 26.134778 192.24 
L 26.134778 192.24 
L 25.124247 192.24 
z
" clip-path="url(#pdc09c3cc6d)" style="fill: #ff7f0e"/>
   </g>
   <g id="patch_88">
    <path d="M 26.134778 192.24 
L 27.14531 192.24 
L 27.14531 192.24 
L 26.134778 192.24 
z
" clip-path="url(#pdc09c3cc6d)" style="fill: #ff7f0e"/>
   </g>
   <g id="patch_89">
    <path d="M 27.14531 192.24 
L 28.155841 192.24 
L 28.155841 192.24 
L 27.14531 192.24 
z
" clip-path="url(#pdc09c3cc6d)" style="fill: #ff7f0e"/>
   </g>
   <g id="patch_90">
    <path d="M 28.155841 192.24 
L 29.166373 192.24 
L 29.166373 192.24 
L 28.155841 192.24 
z
" clip-path="url(#pdc09c3cc6d)" style="fill: #ff7f0e"/>
   </g>
   <g id="patch_91">
    <path d="M 29.166373 192.24 
L 30.176904 192.24 
L 30.176904 192.24 
L 29.166373 192.24 
z
" clip-path="url(#pdc09c3cc6d)" style="fill: #ff7f0e"/>
   </g>
   <g id="patch_92">
    <path d="M 30.176904 192.24 
L 31.187436 192.24 
L 31.187436 192.24 
L 30.176904 192.24 
z
" clip-path="url(#pdc09c3cc6d)" style="fill: #ff7f0e"/>
   </g>
   <g id="patch_93">
    <path d="M 31.187436 192.24 
L 32.197967 192.24 
L 32.197967 192.24 
L 31.187436 192.24 
z
" clip-path="url(#pdc09c3cc6d)" style="fill: #ff7f0e"/>
   </g>
   <g id="patch_94">
    <path d="M 32.197967 192.24 
L 33.208498 192.24 
L 33.208498 192.24 
L 32.197967 192.24 
z
" clip-path="url(#pdc09c3cc6d)" style="fill: #ff7f0e"/>
   </g>
   <g id="patch_95">
    <path d="M 33.208498 192.24 
L 34.21903 192.24 
L 34.21903 192.24 
L 33.208498 192.24 
z
" clip-path="url(#pdc09c3cc6d)" style="fill: #ff7f0e"/>
   </g>
   <g id="patch_96">
    <path d="M 34.21903 192.24 
L 35.229561 192.24 
L 35.229561 192.24 
L 34.21903 192.24 
z
" clip-path="url(#pdc09c3cc6d)" style="fill: #ff7f0e"/>
   </g>
   <g id="patch_97">
    <path d="M 35.229561 192.24 
L 36.240093 192.24 
L 36.240093 192.24 
L 35.229561 192.24 
z
" clip-path="url(#pdc09c3cc6d)" style="fill: #ff7f0e"/>
   </g>
   <g id="patch_98">
    <path d="M 36.240093 192.24 
L 37.250624 192.24 
L 37.250624 192.24 
L 36.240093 192.24 
z
" clip-path="url(#pdc09c3cc6d)" style="fill: #ff7f0e"/>
   </g>
   <g id="patch_99">
    <path d="M 37.250624 192.24 
L 38.261156 192.24 
L 38.261156 192.24 
L 37.250624 192.24 
z
" clip-path="url(#pdc09c3cc6d)" style="fill: #ff7f0e"/>
   </g>
   <g id="patch_100">
    <path d="M 38.261156 192.24 
L 39.271687 192.24 
L 39.271687 192.24 
L 38.261156 192.24 
z
" clip-path="url(#pdc09c3cc6d)" style="fill: #ff7f0e"/>
   </g>
   <g id="patch_101">
    <path d="M 39.271687 192.24 
L 40.282219 192.24 
L 40.282219 192.24 
L 39.271687 192.24 
z
" clip-path="url(#pdc09c3cc6d)" style="fill: #ff7f0e"/>
   </g>
   <g id="patch_102">
    <path d="M 40.282219 192.24 
L 41.29275 192.24 
L 41.29275 192.24 
L 40.282219 192.24 
z
" clip-path="url(#pdc09c3cc6d)" style="fill: #ff7f0e"/>
   </g>
   <g id="patch_103">
    <path d="M 41.29275 192.24 
L 42.303282 192.24 
L 42.303282 192.24 
L 41.29275 192.24 
z
" clip-path="url(#pdc09c3cc6d)" style="fill: #ff7f0e"/>
   </g>
   <g id="patch_104">
    <path d="M 42.303282 192.24 
L 43.313813 192.24 
L 43.313813 192.24 
L 42.303282 192.24 
z
" clip-path="url(#pdc09c3cc6d)" style="fill: #ff7f0e"/>
   </g>
   <g id="patch_105">
    <path d="M 43.313813 192.24 
L 44.324345 192.24 
L 44.324345 192.24 
L 43.313813 192.24 
z
" clip-path="url(#pdc09c3cc6d)" style="fill: #ff7f0e"/>
   </g>
   <g id="patch_106">
    <path d="M 44.324345 192.24 
L 45.334876 192.24 
L 45.334876 192.24 
L 44.324345 192.24 
z
" clip-path="url(#pdc09c3cc6d)" style="fill: #ff7f0e"/>
   </g>
   <g id="patch_107">
    <path d="M 45.334876 192.24 
L 46.345407 192.24 
L 46.345407 192.24 
L 45.334876 192.24 
z
" clip-path="url(#pdc09c3cc6d)" style="fill: #ff7f0e"/>
   </g>
   <g id="patch_108">
    <path d="M 46.345407 192.24 
L 47.355939 192.24 
L 47.355939 192.24 
L 46.345407 192.24 
z
" clip-path="url(#pdc09c3cc6d)" style="fill: #ff7f0e"/>
   </g>
   <g id="patch_109">
    <path d="M 47.355939 192.24 
L 48.36647 192.24 
L 48.36647 192.24 
L 47.355939 192.24 
z
" clip-path="url(#pdc09c3cc6d)" style="fill: #ff7f0e"/>
   </g>
   <g id="patch_110">
    <path d="M 48.36647 192.24 
L 49.377002 192.24 
L 49.377002 192.24 
L 48.36647 192.24 
z
" clip-path="url(#pdc09c3cc6d)" style="fill: #ff7f0e"/>
   </g>
   <g id="patch_111">
    <path d="M 49.377002 192.24 
L 50.387533 192.24 
L 50.387533 192.24 
L 49.377002 192.24 
z
" clip-path="url(#pdc09c3cc6d)" style="fill: #ff7f0e"/>
   </g>
   <g id="patch_112">
    <path d="M 50.387533 192.24 
L 51.398065 192.24 
L 51.398065 192.24 
L 50.387533 192.24 
z
" clip-path="url(#pdc09c3cc6d)" style="fill: #ff7f0e"/>
   </g>
   <g id="patch_113">
    <path d="M 51.398065 192.24 
L 52.408596 192.24 
L 52.408596 192.24 
L 51.398065 192.24 
z
" clip-path="url(#pdc09c3cc6d)" style="fill: #ff7f0e"/>
   </g>
   <g id="patch_114">
    <path d="M 52.408596 192.24 
L 53.419128 192.24 
L 53.419128 192.24 
L 52.408596 192.24 
z
" clip-path="url(#pdc09c3cc6d)" style="fill: #ff7f0e"/>
   </g>
   <g id="patch_115">
    <path d="M 53.419128 192.24 
L 54.429659 192.24 
L 54.429659 192.24 
L 53.419128 192.24 
z
" clip-path="url(#pdc09c3cc6d)" style="fill: #ff7f0e"/>
   </g>
   <g id="patch_116">
    <path d="M 54.429659 192.24 
L 55.440191 192.24 
L 55.440191 192.24 
L 54.429659 192.24 
z
" clip-path="url(#pdc09c3cc6d)" style="fill: #ff7f0e"/>
   </g>
   <g id="patch_117">
    <path d="M 55.440191 192.24 
L 56.450722 192.24 
L 56.450722 192.24 
L 55.440191 192.24 
z
" clip-path="url(#pdc09c3cc6d)" style="fill: #ff7f0e"/>
   </g>
   <g id="patch_118">
    <path d="M 56.450722 192.24 
L 57.461254 192.24 
L 57.461254 192.24 
L 56.450722 192.24 
z
" clip-path="url(#pdc09c3cc6d)" style="fill: #ff7f0e"/>
   </g>
   <g id="patch_119">
    <path d="M 57.461254 192.24 
L 58.471785 192.24 
L 58.471785 192.24 
L 57.461254 192.24 
z
" clip-path="url(#pdc09c3cc6d)" style="fill: #ff7f0e"/>
   </g>
   <g id="patch_120">
    <path d="M 58.471785 192.24 
L 59.482316 192.24 
L 59.482316 192.24 
L 58.471785 192.24 
z
" clip-path="url(#pdc09c3cc6d)" style="fill: #ff7f0e"/>
   </g>
   <g id="patch_121">
    <path d="M 59.482316 192.24 
L 60.492848 192.24 
L 60.492848 192.24 
L 59.482316 192.24 
z
" clip-path="url(#pdc09c3cc6d)" style="fill: #ff7f0e"/>
   </g>
   <g id="patch_122">
    <path d="M 60.492848 192.24 
L 61.503379 192.24 
L 61.503379 192.24 
L 60.492848 192.24 
z
" clip-path="url(#pdc09c3cc6d)" style="fill: #ff7f0e"/>
   </g>
   <g id="patch_123">
    <path d="M 61.503379 192.24 
L 62.513911 192.24 
L 62.513911 192.24 
L 61.503379 192.24 
z
" clip-path="url(#pdc09c3cc6d)" style="fill: #ff7f0e"/>
   </g>
   <g id="patch_124">
    <path d="M 62.513911 192.24 
L 63.524442 192.24 
L 63.524442 192.24 
L 62.513911 192.24 
z
" clip-path="url(#pdc09c3cc6d)" style="fill: #ff7f0e"/>
   </g>
   <g id="patch_125">
    <path d="M 63.524442 192.24 
L 64.534974 192.24 
L 64.534974 192.24 
L 63.524442 192.24 
z
" clip-path="url(#pdc09c3cc6d)" style="fill: #ff7f0e"/>
   </g>
   <g id="patch_126">
    <path d="M 64.534974 192.24 
L 65.545505 192.24 
L 65.545505 192.24 
L 64.534974 192.24 
z
" clip-path="url(#pdc09c3cc6d)" style="fill: #ff7f0e"/>
   </g>
   <g id="patch_127">
    <path d="M 65.545505 192.24 
L 66.556037 192.24 
L 66.556037 192.24 
L 65.545505 192.24 
z
" clip-path="url(#pdc09c3cc6d)" style="fill: #ff7f0e"/>
   </g>
   <g id="patch_128">
    <path d="M 66.556037 192.24 
L 67.566568 192.24 
L 67.566568 192.24 
L 66.556037 192.24 
z
" clip-path="url(#pdc09c3cc6d)" style="fill: #ff7f0e"/>
   </g>
   <g id="patch_129">
    <path d="M 67.566568 192.24 
L 68.5771 192.24 
L 68.5771 192.24 
L 67.566568 192.24 
z
" clip-path="url(#pdc09c3cc6d)" style="fill: #ff7f0e"/>
   </g>
   <g id="patch_130">
    <path d="M 68.5771 192.24 
L 69.587631 192.24 
L 69.587631 192.24 
L 68.5771 192.24 
z
" clip-path="url(#pdc09c3cc6d)" style="fill: #ff7f0e"/>
   </g>
   <g id="patch_131">
    <path d="M 69.587631 192.24 
L 70.598163 192.24 
L 70.598163 192.24 
L 69.587631 192.24 
z
" clip-path="url(#pdc09c3cc6d)" style="fill: #ff7f0e"/>
   </g>
   <g id="patch_132">
    <path d="M 70.598163 192.24 
L 71.608694 192.24 
L 71.608694 192.24 
L 70.598163 192.24 
z
" clip-path="url(#pdc09c3cc6d)" style="fill: #ff7f0e"/>
   </g>
   <g id="patch_133">
    <path d="M 71.608694 192.24 
L 72.619225 192.24 
L 72.619225 192.24 
L 71.608694 192.24 
z
" clip-path="url(#pdc09c3cc6d)" style="fill: #ff7f0e"/>
   </g>
   <g id="patch_134">
    <path d="M 72.619225 192.24 
L 73.629757 192.24 
L 73.629757 192.24 
L 72.619225 192.24 
z
" clip-path="url(#pdc09c3cc6d)" style="fill: #ff7f0e"/>
   </g>
   <g id="patch_135">
    <path d="M 73.629757 192.24 
L 74.640288 192.24 
L 74.640288 192.24 
L 73.629757 192.24 
z
" clip-path="url(#pdc09c3cc6d)" style="fill: #ff7f0e"/>
   </g>
   <g id="patch_136">
    <path d="M 74.640288 192.24 
L 75.65082 192.24 
L 75.65082 192.24 
L 74.640288 192.24 
z
" clip-path="url(#pdc09c3cc6d)" style="fill: #ff7f0e"/>
   </g>
   <g id="patch_137">
    <path d="M 75.65082 192.24 
L 76.661351 192.24 
L 76.661351 192.24 
L 75.65082 192.24 
z
" clip-path="url(#pdc09c3cc6d)" style="fill: #ff7f0e"/>
   </g>
   <g id="patch_138">
    <path d="M 76.661351 192.24 
L 77.671883 192.24 
L 77.671883 192.24 
L 76.661351 192.24 
z
" clip-path="url(#pdc09c3cc6d)" style="fill: #ff7f0e"/>
   </g>
   <g id="patch_139">
    <path d="M 77.671883 192.24 
L 78.682414 192.24 
L 78.682414 192.24 
L 77.671883 192.24 
z
" clip-path="url(#pdc09c3cc6d)" style="fill: #ff7f0e"/>
   </g>
   <g id="patch_140">
    <path d="M 78.682414 192.24 
L 79.692946 192.24 
L 79.692946 192.24 
L 78.682414 192.24 
z
" clip-path="url(#pdc09c3cc6d)" style="fill: #ff7f0e"/>
   </g>
   <g id="patch_141">
    <path d="M 79.692946 192.24 
L 80.703477 192.24 
L 80.703477 192.24 
L 79.692946 192.24 
z
" clip-path="url(#pdc09c3cc6d)" style="fill: #ff7f0e"/>
   </g>
   <g id="patch_142">
    <path d="M 80.703477 192.24 
L 81.714009 192.24 
L 81.714009 192.24 
L 80.703477 192.24 
z
" clip-path="url(#pdc09c3cc6d)" style="fill: #ff7f0e"/>
   </g>
   <g id="patch_143">
    <path d="M 81.714009 192.24 
L 82.72454 192.24 
L 82.72454 192.24 
L 81.714009 192.24 
z
" clip-path="url(#pdc09c3cc6d)" style="fill: #ff7f0e"/>
   </g>
   <g id="patch_144">
    <path d="M 82.72454 192.24 
L 83.735071 192.24 
L 83.735071 192.24 
L 82.72454 192.24 
z
" clip-path="url(#pdc09c3cc6d)" style="fill: #ff7f0e"/>
   </g>
   <g id="patch_145">
    <path d="M 83.735071 192.24 
L 84.745603 192.24 
L 84.745603 192.24 
L 83.735071 192.24 
z
" clip-path="url(#pdc09c3cc6d)" style="fill: #ff7f0e"/>
   </g>
   <g id="patch_146">
    <path d="M 84.745603 192.24 
L 85.756134 192.24 
L 85.756134 192.24 
L 84.745603 192.24 
z
" clip-path="url(#pdc09c3cc6d)" style="fill: #ff7f0e"/>
   </g>
   <g id="patch_147">
    <path d="M 85.756134 192.24 
L 86.766666 192.24 
L 86.766666 192.24 
L 85.756134 192.24 
z
" clip-path="url(#pdc09c3cc6d)" style="fill: #ff7f0e"/>
   </g>
   <g id="patch_148">
    <path d="M 86.766666 192.24 
L 87.777197 192.24 
L 87.777197 192.24 
L 86.766666 192.24 
z
" clip-path="url(#pdc09c3cc6d)" style="fill: #ff7f0e"/>
   </g>
   <g id="patch_149">
    <path d="M 87.777197 192.24 
L 88.787729 192.24 
L 88.787729 192.24 
L 87.777197 192.24 
z
" clip-path="url(#pdc09c3cc6d)" style="fill: #ff7f0e"/>
   </g>
   <g id="patch_150">
    <path d="M 88.787729 192.24 
L 89.79826 192.24 
L 89.79826 192.24 
L 88.787729 192.24 
z
" clip-path="url(#pdc09c3cc6d)" style="fill: #ff7f0e"/>
   </g>
   <g id="patch_151">
    <path d="M 89.79826 192.24 
L 90.808792 192.24 
L 90.808792 192.24 
L 89.79826 192.24 
z
" clip-path="url(#pdc09c3cc6d)" style="fill: #ff7f0e"/>
   </g>
   <g id="patch_152">
    <path d="M 90.808792 192.24 
L 91.819323 192.24 
L 91.819323 192.24 
L 90.808792 192.24 
z
" clip-path="url(#pdc09c3cc6d)" style="fill: #ff7f0e"/>
   </g>
   <g id="patch_153">
    <path d="M 91.819323 192.24 
L 92.829855 192.24 
L 92.829855 192.24 
L 91.819323 192.24 
z
" clip-path="url(#pdc09c3cc6d)" style="fill: #ff7f0e"/>
   </g>
   <g id="patch_154">
    <path d="M 92.829855 192.24 
L 93.840386 192.24 
L 93.840386 192.24 
L 92.829855 192.24 
z
" clip-path="url(#pdc09c3cc6d)" style="fill: #ff7f0e"/>
   </g>
   <g id="patch_155">
    <path d="M 93.840386 192.24 
L 94.850918 192.24 
L 94.850918 192.24 
L 93.840386 192.24 
z
" clip-path="url(#pdc09c3cc6d)" style="fill: #ff7f0e"/>
   </g>
   <g id="patch_156">
    <path d="M 94.850918 192.24 
L 95.861449 192.24 
L 95.861449 192.24 
L 94.850918 192.24 
z
" clip-path="url(#pdc09c3cc6d)" style="fill: #ff7f0e"/>
   </g>
   <g id="patch_157">
    <path d="M 95.861449 192.24 
L 96.87198 192.24 
L 96.87198 192.24 
L 95.861449 192.24 
z
" clip-path="url(#pdc09c3cc6d)" style="fill: #ff7f0e"/>
   </g>
   <g id="patch_158">
    <path d="M 96.87198 192.24 
L 97.882512 192.24 
L 97.882512 192.24 
L 96.87198 192.24 
z
" clip-path="url(#pdc09c3cc6d)" style="fill: #ff7f0e"/>
   </g>
   <g id="patch_159">
    <path d="M 97.882512 192.24 
L 98.893043 192.24 
L 98.893043 192.24 
L 97.882512 192.24 
z
" clip-path="url(#pdc09c3cc6d)" style="fill: #ff7f0e"/>
   </g>
   <g id="patch_160">
    <path d="M 98.893043 192.24 
L 99.903575 192.24 
L 99.903575 192.24 
L 98.893043 192.24 
z
" clip-path="url(#pdc09c3cc6d)" style="fill: #ff7f0e"/>
   </g>
   <g id="patch_161">
    <path d="M 99.903575 192.24 
L 100.914106 192.24 
L 100.914106 192.24 
L 99.903575 192.24 
z
" clip-path="url(#pdc09c3cc6d)" style="fill: #ff7f0e"/>
   </g>
   <g id="patch_162">
    <path d="M 100.914106 192.24 
L 101.924638 192.24 
L 101.924638 176.4 
L 100.914106 176.4 
z
" clip-path="url(#pdc09c3cc6d)" style="fill: #ff7f0e"/>
   </g>
   <g id="patch_163">
    <path d="M 101.924638 192.24 
L 102.935169 192.24 
L 102.935169 176.4 
L 101.924638 176.4 
z
" clip-path="url(#pdc09c3cc6d)" style="fill: #ff7f0e"/>
   </g>
   <g id="patch_164">
    <path d="M 102.935169 192.24 
L 103.945701 192.24 
L 103.945701 160.56 
L 102.935169 160.56 
z
" clip-path="url(#pdc09c3cc6d)" style="fill: #ff7f0e"/>
   </g>
   <g id="matplotlib.axis_1">
    <g id="xtick_1">
     <g id="line2d_1">
      <defs>
       <path id="mf92eb5ba28" d="M 0 0 
L 0 3.5 
" style="stroke: #000000; stroke-width: 0.8"/>
      </defs>
      <g>
       <use xlink:href="#mf92eb5ba28" x="28.546833" y="192.24" style="stroke: #000000; stroke-width: 0.8"/>
      </g>
     </g>
     <g id="text_1">
      <!-- 0 -->
      <g transform="translate(22.820583 212.917188) scale(0.18 -0.18)">
       <defs>
        <path id="DejaVuSans-30" d="M 2034 4250 
Q 1547 4250 1301 3770 
Q 1056 3291 1056 2328 
Q 1056 1369 1301 889 
Q 1547 409 2034 409 
Q 2525 409 2770 889 
Q 3016 1369 3016 2328 
Q 3016 3291 2770 3770 
Q 2525 4250 2034 4250 
z
M 2034 4750 
Q 2819 4750 3233 4129 
Q 3647 3509 3647 2328 
Q 3647 1150 3233 529 
Q 2819 -91 2034 -91 
Q 1250 -91 836 529 
Q 422 1150 422 2328 
Q 422 3509 836 4129 
Q 1250 4750 2034 4750 
z
" transform="scale(0.015625)"/>
       </defs>
       <use xlink:href="#DejaVuSans-30"/>
      </g>
     </g>
    </g>
    <g id="xtick_2">
     <g id="line2d_2">
      <g>
       <use xlink:href="#mf92eb5ba28" x="79.073416" y="192.24" style="stroke: #000000; stroke-width: 0.8"/>
      </g>
     </g>
     <g id="text_2">
      <!-- 0.5 -->
      <g transform="translate(64.760604 212.917188) scale(0.18 -0.18)">
       <defs>
        <path id="DejaVuSans-2e" d="M 684 794 
L 1344 794 
L 1344 0 
L 684 0 
L 684 794 
z
" transform="scale(0.015625)"/>
        <path id="DejaVuSans-35" d="M 691 4666 
L 3169 4666 
L 3169 4134 
L 1269 4134 
L 1269 2991 
Q 1406 3038 1543 3061 
Q 1681 3084 1819 3084 
Q 2600 3084 3056 2656 
Q 3513 2228 3513 1497 
Q 3513 744 3044 326 
Q 2575 -91 1722 -91 
Q 1428 -91 1123 -41 
Q 819 9 494 109 
L 494 744 
Q 775 591 1075 516 
Q 1375 441 1709 441 
Q 2250 441 2565 725 
Q 2881 1009 2881 1497 
Q 2881 1984 2565 2268 
Q 2250 2553 1709 2553 
Q 1456 2553 1204 2497 
Q 953 2441 691 2322 
L 691 4666 
z
" transform="scale(0.015625)"/>
       </defs>
       <use xlink:href="#DejaVuSans-30"/>
       <use xlink:href="#DejaVuSans-2e" x="63.623047"/>
       <use xlink:href="#DejaVuSans-35" x="95.410156"/>
      </g>
     </g>
    </g>
    <g id="xtick_3">
     <g id="line2d_3">
      <g>
       <use xlink:href="#mf92eb5ba28" x="129.6" y="192.24" style="stroke: #000000; stroke-width: 0.8"/>
      </g>
     </g>
     <g id="text_3">
      <!-- 1 -->
      <g transform="translate(123.87375 212.917188) scale(0.18 -0.18)">
       <defs>
        <path id="DejaVuSans-31" d="M 794 531 
L 1825 531 
L 1825 4091 
L 703 3866 
L 703 4441 
L 1819 4666 
L 2450 4666 
L 2450 531 
L 3481 531 
L 3481 0 
L 794 0 
L 794 531 
z
" transform="scale(0.015625)"/>
       </defs>
       <use xlink:href="#DejaVuSans-31"/>
      </g>
     </g>
    </g>
    <g id="text_4">
     <!-- Value -->
     <g transform="translate(54.57625 231.298438) scale(0.14 -0.14)">
      <defs>
       <path id="DejaVuSans-56" d="M 1831 0 
L 50 4666 
L 709 4666 
L 2188 738 
L 3669 4666 
L 4325 4666 
L 2547 0 
L 1831 0 
z
" transform="scale(0.015625)"/>
       <path id="DejaVuSans-61" d="M 2194 1759 
Q 1497 1759 1228 1600 
Q 959 1441 959 1056 
Q 959 750 1161 570 
Q 1363 391 1709 391 
Q 2188 391 2477 730 
Q 2766 1069 2766 1631 
L 2766 1759 
L 2194 1759 
z
M 3341 1997 
L 3341 0 
L 2766 0 
L 2766 531 
Q 2569 213 2275 61 
Q 1981 -91 1556 -91 
Q 1019 -91 701 211 
Q 384 513 384 1019 
Q 384 1609 779 1909 
Q 1175 2209 1959 2209 
L 2766 2209 
L 2766 2266 
Q 2766 2663 2505 2880 
Q 2244 3097 1772 3097 
Q 1472 3097 1187 3025 
Q 903 2953 641 2809 
L 641 3341 
Q 956 3463 1253 3523 
Q 1550 3584 1831 3584 
Q 2591 3584 2966 3190 
Q 3341 2797 3341 1997 
z
" transform="scale(0.015625)"/>
       <path id="DejaVuSans-6c" d="M 603 4863 
L 1178 4863 
L 1178 0 
L 603 0 
L 603 4863 
z
" transform="scale(0.015625)"/>
       <path id="DejaVuSans-75" d="M 544 1381 
L 544 3500 
L 1119 3500 
L 1119 1403 
Q 1119 906 1312 657 
Q 1506 409 1894 409 
Q 2359 409 2629 706 
Q 2900 1003 2900 1516 
L 2900 3500 
L 3475 3500 
L 3475 0 
L 2900 0 
L 2900 538 
Q 2691 219 2414 64 
Q 2138 -91 1772 -91 
Q 1169 -91 856 284 
Q 544 659 544 1381 
z
M 1991 3584 
L 1991 3584 
z
" transform="scale(0.015625)"/>
       <path id="DejaVuSans-65" d="M 3597 1894 
L 3597 1613 
L 953 1613 
Q 991 1019 1311 708 
Q 1631 397 2203 397 
Q 2534 397 2845 478 
Q 3156 559 3463 722 
L 3463 178 
Q 3153 47 2828 -22 
Q 2503 -91 2169 -91 
Q 1331 -91 842 396 
Q 353 884 353 1716 
Q 353 2575 817 3079 
Q 1281 3584 2069 3584 
Q 2775 3584 3186 3129 
Q 3597 2675 3597 1894 
z
M 3022 2063 
Q 3016 2534 2758 2815 
Q 2500 3097 2075 3097 
Q 1594 3097 1305 2825 
Q 1016 2553 972 2059 
L 3022 2063 
z
" transform="scale(0.015625)"/>
      </defs>
      <use xlink:href="#DejaVuSans-56"/>
      <use xlink:href="#DejaVuSans-61" x="60.658203"/>
      <use xlink:href="#DejaVuSans-6c" x="121.9375"/>
      <use xlink:href="#DejaVuSans-75" x="149.720703"/>
      <use xlink:href="#DejaVuSans-65" x="213.099609"/>
     </g>
    </g>
   </g>
   <g id="matplotlib.axis_2"/>
   <g id="patch_165">
    <path d="M 18 192.24 
L 18 25.92 
" style="fill: none; stroke: #000000; stroke-width: 0.8; stroke-linejoin: miter; stroke-linecap: square"/>
   </g>
   <g id="patch_166">
    <path d="M 18 192.24 
L 129.6 192.24 
" style="fill: none; stroke: #000000; stroke-width: 0.8; stroke-linejoin: miter; stroke-linecap: square"/>
   </g>
   <g id="legend_1">
    <g id="patch_167">
     <path d="M -50.08 52.48 
L -18.08 52.48 
L -18.08 41.28 
L -50.08 41.28 
z
" style="fill: #1f77b4; opacity: 0.2"/>
    </g>
    <g id="text_5">
     <!-- output $\it{losers}$ -->
     <g transform="translate(-5.28 52.48) scale(0.16 -0.16)">
      <defs>
       <path id="DejaVuSans-6f" d="M 1959 3097 
Q 1497 3097 1228 2736 
Q 959 2375 959 1747 
Q 959 1119 1226 758 
Q 1494 397 1959 397 
Q 2419 397 2687 759 
Q 2956 1122 2956 1747 
Q 2956 2369 2687 2733 
Q 2419 3097 1959 3097 
z
M 1959 3584 
Q 2709 3584 3137 3096 
Q 3566 2609 3566 1747 
Q 3566 888 3137 398 
Q 2709 -91 1959 -91 
Q 1206 -91 779 398 
Q 353 888 353 1747 
Q 353 2609 779 3096 
Q 1206 3584 1959 3584 
z
" transform="scale(0.015625)"/>
       <path id="DejaVuSans-74" d="M 1172 4494 
L 1172 3500 
L 2356 3500 
L 2356 3053 
L 1172 3053 
L 1172 1153 
Q 1172 725 1289 603 
Q 1406 481 1766 481 
L 2356 481 
L 2356 0 
L 1766 0 
Q 1100 0 847 248 
Q 594 497 594 1153 
L 594 3053 
L 172 3053 
L 172 3500 
L 594 3500 
L 594 4494 
L 1172 4494 
z
" transform="scale(0.015625)"/>
       <path id="DejaVuSans-70" d="M 1159 525 
L 1159 -1331 
L 581 -1331 
L 581 3500 
L 1159 3500 
L 1159 2969 
Q 1341 3281 1617 3432 
Q 1894 3584 2278 3584 
Q 2916 3584 3314 3078 
Q 3713 2572 3713 1747 
Q 3713 922 3314 415 
Q 2916 -91 2278 -91 
Q 1894 -91 1617 61 
Q 1341 213 1159 525 
z
M 3116 1747 
Q 3116 2381 2855 2742 
Q 2594 3103 2138 3103 
Q 1681 3103 1420 2742 
Q 1159 2381 1159 1747 
Q 1159 1113 1420 752 
Q 1681 391 2138 391 
Q 2594 391 2855 752 
Q 3116 1113 3116 1747 
z
" transform="scale(0.015625)"/>
       <path id="DejaVuSans-20" transform="scale(0.015625)"/>
       <path id="DejaVuSans-Oblique-6c" d="M 1172 4863 
L 1747 4863 
L 800 0 
L 225 0 
L 1172 4863 
z
" transform="scale(0.015625)"/>
       <path id="DejaVuSans-Oblique-6f" d="M 1625 -91 
Q 1009 -91 651 289 
Q 294 669 294 1325 
Q 294 1706 417 2101 
Q 541 2497 738 2766 
Q 1047 3184 1428 3384 
Q 1809 3584 2291 3584 
Q 2888 3584 3255 3212 
Q 3622 2841 3622 2241 
Q 3622 1825 3500 1412 
Q 3378 1000 3181 728 
Q 2875 309 2494 109 
Q 2113 -91 1625 -91 
z
M 891 1344 
Q 891 869 1089 633 
Q 1288 397 1691 397 
Q 2269 397 2648 901 
Q 3028 1406 3028 2181 
Q 3028 2634 2825 2865 
Q 2622 3097 2228 3097 
Q 1903 3097 1650 2945 
Q 1397 2794 1197 2484 
Q 1050 2253 970 1956 
Q 891 1659 891 1344 
z
" transform="scale(0.015625)"/>
       <path id="DejaVuSans-Oblique-73" d="M 3200 3397 
L 3091 2853 
Q 2863 2978 2609 3040 
Q 2356 3103 2088 3103 
Q 1634 3103 1373 2948 
Q 1113 2794 1113 2528 
Q 1113 2219 1719 2053 
Q 1766 2041 1788 2034 
L 1972 1978 
Q 2547 1819 2739 1644 
Q 2931 1469 2931 1166 
Q 2931 609 2489 259 
Q 2047 -91 1331 -91 
Q 1053 -91 747 -37 
Q 441 16 72 128 
L 184 722 
Q 500 559 806 475 
Q 1113 391 1394 391 
Q 1816 391 2080 572 
Q 2344 753 2344 1031 
Q 2344 1331 1650 1516 
L 1591 1531 
L 1394 1581 
Q 956 1697 753 1886 
Q 550 2075 550 2369 
Q 550 2928 970 3256 
Q 1391 3584 2113 3584 
Q 2397 3584 2667 3537 
Q 2938 3491 3200 3397 
z
" transform="scale(0.015625)"/>
       <path id="DejaVuSans-Oblique-65" d="M 3078 2063 
Q 3088 2113 3092 2166 
Q 3097 2219 3097 2272 
Q 3097 2653 2873 2875 
Q 2650 3097 2266 3097 
Q 1838 3097 1509 2826 
Q 1181 2556 1013 2059 
L 3078 2063 
z
M 3578 1613 
L 903 1613 
Q 884 1494 878 1425 
Q 872 1356 872 1306 
Q 872 872 1139 634 
Q 1406 397 1894 397 
Q 2269 397 2603 481 
Q 2938 566 3225 728 
L 3116 159 
Q 2806 34 2476 -28 
Q 2147 -91 1806 -91 
Q 1078 -91 686 257 
Q 294 606 294 1247 
Q 294 1794 489 2264 
Q 684 2734 1063 3103 
Q 1306 3334 1642 3459 
Q 1978 3584 2356 3584 
Q 2950 3584 3301 3228 
Q 3653 2872 3653 2272 
Q 3653 2128 3634 1964 
Q 3616 1800 3578 1613 
z
" transform="scale(0.015625)"/>
       <path id="DejaVuSans-Oblique-72" d="M 2853 2969 
Q 2766 3016 2653 3041 
Q 2541 3066 2413 3066 
Q 1953 3066 1609 2717 
Q 1266 2369 1153 1784 
L 800 0 
L 225 0 
L 909 3500 
L 1484 3500 
L 1375 2956 
Q 1603 3259 1920 3421 
Q 2238 3584 2597 3584 
Q 2691 3584 2781 3573 
Q 2872 3563 2963 3538 
L 2853 2969 
z
" transform="scale(0.015625)"/>
      </defs>
      <use xlink:href="#DejaVuSans-6f" transform="translate(0 0.015625)"/>
      <use xlink:href="#DejaVuSans-75" transform="translate(61.181641 0.015625)"/>
      <use xlink:href="#DejaVuSans-74" transform="translate(124.560547 0.015625)"/>
      <use xlink:href="#DejaVuSans-70" transform="translate(163.769531 0.015625)"/>
      <use xlink:href="#DejaVuSans-75" transform="translate(227.246094 0.015625)"/>
      <use xlink:href="#DejaVuSans-74" transform="translate(290.625 0.015625)"/>
      <use xlink:href="#DejaVuSans-20" transform="translate(329.833984 0.015625)"/>
      <use xlink:href="#DejaVuSans-Oblique-6c" transform="translate(361.621094 0.015625)"/>
      <use xlink:href="#DejaVuSans-Oblique-6f" transform="translate(389.404297 0.015625)"/>
      <use xlink:href="#DejaVuSans-Oblique-73" transform="translate(450.585938 0.015625)"/>
      <use xlink:href="#DejaVuSans-Oblique-65" transform="translate(502.685547 0.015625)"/>
      <use xlink:href="#DejaVuSans-Oblique-72" transform="translate(564.208984 0.015625)"/>
      <use xlink:href="#DejaVuSans-Oblique-73" transform="translate(605.322266 0.015625)"/>
     </g>
    </g>
    <g id="patch_168">
     <path d="M -50.08 76 
L -18.08 76 
L -18.08 64.8 
L -50.08 64.8 
z
" style="fill: #ff7f0e"/>
    </g>
    <g id="text_6">
     <!-- output $\it{winners}$ -->
     <g transform="translate(-5.28 76) scale(0.16 -0.16)">
      <defs>
       <path id="DejaVuSans-Oblique-77" d="M 544 3500 
L 1113 3500 
L 1259 684 
L 2566 3500 
L 3231 3500 
L 3425 684 
L 4666 3500 
L 5241 3500 
L 3641 0 
L 2969 0 
L 2797 2900 
L 1459 0 
L 781 0 
L 544 3500 
z
" transform="scale(0.015625)"/>
       <path id="DejaVuSans-Oblique-69" d="M 1172 4863 
L 1747 4863 
L 1606 4134 
L 1031 4134 
L 1172 4863 
z
M 909 3500 
L 1484 3500 
L 800 0 
L 225 0 
L 909 3500 
z
" transform="scale(0.015625)"/>
       <path id="DejaVuSans-Oblique-6e" d="M 3566 2113 
L 3156 0 
L 2578 0 
L 2988 2091 
Q 3016 2238 3031 2350 
Q 3047 2463 3047 2528 
Q 3047 2791 2881 2937 
Q 2716 3084 2419 3084 
Q 1956 3084 1622 2776 
Q 1288 2469 1184 1941 
L 800 0 
L 225 0 
L 903 3500 
L 1478 3500 
L 1363 2950 
Q 1603 3253 1940 3418 
Q 2278 3584 2650 3584 
Q 3113 3584 3367 3334 
Q 3622 3084 3622 2631 
Q 3622 2519 3608 2391 
Q 3594 2263 3566 2113 
z
" transform="scale(0.015625)"/>
      </defs>
      <use xlink:href="#DejaVuSans-6f" transform="translate(0 0.015625)"/>
      <use xlink:href="#DejaVuSans-75" transform="translate(61.181641 0.015625)"/>
      <use xlink:href="#DejaVuSans-74" transform="translate(124.560547 0.015625)"/>
      <use xlink:href="#DejaVuSans-70" transform="translate(163.769531 0.015625)"/>
      <use xlink:href="#DejaVuSans-75" transform="translate(227.246094 0.015625)"/>
      <use xlink:href="#DejaVuSans-74" transform="translate(290.625 0.015625)"/>
      <use xlink:href="#DejaVuSans-20" transform="translate(329.833984 0.015625)"/>
      <use xlink:href="#DejaVuSans-Oblique-77" transform="translate(361.621094 0.015625)"/>
      <use xlink:href="#DejaVuSans-Oblique-69" transform="translate(443.408203 0.015625)"/>
      <use xlink:href="#DejaVuSans-Oblique-6e" transform="translate(471.191406 0.015625)"/>
      <use xlink:href="#DejaVuSans-Oblique-6e" transform="translate(534.570312 0.015625)"/>
      <use xlink:href="#DejaVuSans-Oblique-65" transform="translate(597.949219 0.015625)"/>
      <use xlink:href="#DejaVuSans-Oblique-72" transform="translate(659.472656 0.015625)"/>
      <use xlink:href="#DejaVuSans-Oblique-73" transform="translate(700.585938 0.015625)"/>
     </g>
    </g>
   </g>
  </g>
 </g>
 <defs>
  <clipPath id="pdc09c3cc6d">
   <rect x="18" y="25.92" width="111.6" height="166.32"/>
  </clipPath>
 </defs>
</svg>
